<svg width="191" height="396" viewBox="0 0 191 396" fill="none" xmlns="http://www.w3.org/2000/svg">
<g opacity="0.5">
<path d="M47.3195 278.229C56.8514 248.426 68.7177 223.793 81.7541 203.652C81.305 173.191 74.9766 141.56 59.9443 110.316C59.5475 110.164 59.138 109.999 58.7169 109.823C45.5592 104.3 21.0806 86.8557 19.4288 56.7719C17.2981 17.9637 20.8547 12.0534 22.2975 6.80843C24.3285 -0.574446 43.6581 9.49332 58.8448 28.338C59.6156 20.3955 60.5929 11.6414 61.8048 1.99344C85.9621 36.0192 107.342 105.517 58.7169 109.823C59.138 109.999 59.5475 110.164 59.9443 110.316C74.9766 141.56 81.305 173.191 81.7541 203.652C82.9804 286.821 40.375 361.258 11.4386 395.224C30.7816 362.007 -2.5163 277.656 11.5399 194.172C14.8736 174.371 13.868 161.048 11.2742 152.449C8.28257 147.989 5.07001 143.542 1.62409 139.115C4.6306 140.098 8.72154 143.986 11.2742 152.449C40.6036 196.172 48.7025 241.044 47.3195 278.229Z" fill="#F6F3F1"/>
<path d="M84.6247 306.797C96.0372 297.827 120.582 267.016 127.461 215.539C134.339 164.062 171.918 134 189.847 125.403C141.863 129.186 55.6724 184.718 30.9245 350.028C48.3906 314.706 66.9831 223.073 1.62409 139.115C7.68547 141.098 18.1546 154.885 11.5399 194.172C-2.5163 277.656 30.7816 362.007 11.4386 395.224C50.9727 348.818 116.022 226.869 59.9443 110.316C47.1494 105.404 21.1334 87.8185 19.4288 56.7719C17.2981 17.9637 20.8547 12.0534 22.2975 6.80843C26.3972 -8.09473 100.986 48.1099 69.6957 104.077C69.2406 104.891 68.4071 105.488 67.4746 105.491C60.9502 105.512 49.7306 98.1161 61.8048 1.99344C87.6866 38.4481 110.381 115.62 47.2089 109.711C45.6098 109.562 43.9716 109.178 42.5081 108.516C23.0638 99.7272 5.05955 72.58 13.0652 6.27834L17.4098 6.52779" stroke="#B69B89"/>
</g>
</svg>
